<svg width="32" height="32" viewBox="0 0 32 32" xmlns="http://www.w3.org/2000/svg">
  <defs>
    <linearGradient id="faviconGradient" x1="0%" y1="0%" x2="100%" y2="100%">
      <stop offset="0%" style="stop-color:#646cff;stop-opacity:1" />
      <stop offset="100%" style="stop-color:#4f46e5;stop-opacity:1" />
    </linearGradient>
  </defs>
  
  <!-- Terminal Background -->
  <rect x="2" y="2" width="28" height="28" rx="4" ry="4" fill="url(#faviconGradient)"/>
  
  <!-- Terminal Screen -->
  <rect x="4" y="6" width="24" height="22" rx="2" ry="2" fill="#1a1a1a"/>
  
  <!-- Terminal Header -->
  <rect x="4" y="4" width="24" height="3" rx="2" ry="2" fill="#2d3748"/>
  
  <!-- Log Lines -->
  <rect x="6" y="10" width="2" height="1" fill="#3b82f6"/>
  <rect x="10" y="10" width="16" height="0.5" fill="#64748b" opacity="0.6"/>
  
  <rect x="6" y="13" width="2" height="1" fill="#10b981"/>
  <rect x="10" y="13" width="14" height="0.5" fill="#64748b" opacity="0.6"/>
  
  <rect x="6" y="16" width="2" height="1" fill="#f59e0b"/>
  <rect x="10" y="16" width="12" height="0.5" fill="#64748b" opacity="0.6"/>
  
  <rect x="6" y="19" width="2" height="1" fill="#ef4444"/>
  <rect x="10" y="19" width="18" height="0.5" fill="#64748b" opacity="0.6"/>
  
  <!-- Cursor -->
  <rect x="6" y="22" width="3" height="3" fill="#646cff" opacity="0.8">
    <animate attributeName="opacity" values="0.8;0.2;0.8" dur="1.5s" repeatCount="indefinite"/>
  </rect>
</svg>